<svg width="11" height="10" viewBox="0 0 11 10" fill="none" xmlns="http://www.w3.org/2000/svg">
<path fill-rule="evenodd" clip-rule="evenodd" d="M9.94194 1.44194C10.186 1.19786 10.186 0.802136 9.94194 0.558058C9.69786 0.313981 9.30214 0.313981 9.05806 0.558058L5.5 4.11612L1.94194 0.558058C1.69786 0.313981 1.30214 0.313981 1.05806 0.558058C0.813981 0.802136 0.813981 1.19786 1.05806 1.44194L4.61612 5L1.05806 8.55806C0.813981 8.80214 0.813981 9.19786 1.05806 9.44194C1.30214 9.68602 1.69786 9.68602 1.94194 9.44194L5.5 5.88388L9.05806 9.44194C9.30214 9.68602 9.69786 9.68602 9.94194 9.44194C10.186 9.19786 10.186 8.80214 9.94194 8.55806L6.38388 5L9.94194 1.44194Z" fill="#343839"/>
</svg>
