<svg width="17" height="16" viewBox="0 0 17 16" fill="none" xmlns="http://www.w3.org/2000/svg">
  <path d="m14.512 9.89-.245.71.245-.71Zm0-3.78.245.708-.245-.708ZM2.488 9.89l.245.71-.245-.71Zm0-3.78-.245.708.245-.708Zm8.542.42a.75.75 0 1 0-1.06-1.06l1.06 1.06ZM5.97 9.47a.75.75 0 1 0 1.06 1.06L5.97 9.47ZM4.5 13.25a1.917 1.917 0 0 1-1.917-1.917h-1.5A3.417 3.417 0 0 0 4.5 14.75v-1.5Zm9.917-1.917A1.917 1.917 0 0 1 12.5 13.25v1.5a3.417 3.417 0 0 0 3.417-3.417h-1.5ZM12.5 2.75c1.059 0 1.917.858 1.917 1.917h1.5A3.417 3.417 0 0 0 12.5 1.25v1.5Zm-8-1.5a3.417 3.417 0 0 0-3.417 3.417h1.5c0-1.059.858-1.917 1.917-1.917v-1.5Zm10.257 7.932A1.25 1.25 0 0 1 13.917 8h-1.5a2.75 2.75 0 0 0 1.85 2.6l.49-1.418ZM13.917 8c0-.546.35-1.012.84-1.182l-.49-1.417A2.75 2.75 0 0 0 12.417 8h1.5ZM3.083 8a1.25 1.25 0 0 1-.84 1.182l.49 1.417A2.75 2.75 0 0 0 4.583 8h-1.5Zm-.84-1.182c.49.17.84.636.84 1.182h1.5a2.75 2.75 0 0 0-1.85-2.6l-.49 1.418Zm13.674-1.485v-.666h-1.5v.666h1.5Zm-1.5 5.334v.666h1.5v-.666h-1.5Zm-13.334 0v.666h1.5v-.666h-1.5Zm1.5-5.334v-.666h-1.5v.666h1.5ZM12.5 13.25h-8v1.5h8v-1.5Zm0-12h-8v1.5h8v-1.5ZM2.243 9.182c-.505.174-1.16.666-1.16 1.485h1.5a.09.09 0 0 1-.006.033c-.002.005-.001 0 .01-.011a.368.368 0 0 1 .146-.09l-.49-1.417Zm12.514-2.364c.505-.174 1.16-.666 1.16-1.485h-1.5a.09.09 0 0 1 .006-.033c.002-.005.001 0-.01.012a.368.368 0 0 1-.146.089l.49 1.417ZM2.733 5.401a.368.368 0 0 1-.146-.09c-.011-.011-.012-.016-.01-.01a.09.09 0 0 1 .006.032h-1.5c0 .819.655 1.31 1.16 1.485l.49-1.417Zm11.534 5.198c.07.025.122.062.146.09.011.011.012.016.01.01a.09.09 0 0 1-.006-.032h1.5c0-.819-.655-1.31-1.16-1.485l-.49 1.417ZM6.417 6c0-.046.037-.083.083-.083v1.5c.782 0 1.417-.635 1.417-1.417h-1.5Zm.083-.083c.046 0 .083.037.083.083h-1.5c0 .782.635 1.417 1.417 1.417v-1.5ZM6.583 6a.083.083 0 0 1-.083.083v-1.5c-.782 0-1.417.635-1.417 1.417h1.5Zm-.083.083A.083.083 0 0 1 6.417 6h1.5c0-.782-.635-1.417-1.417-1.417v1.5ZM10.417 10c0-.046.037-.083.083-.083v1.5c.782 0 1.417-.635 1.417-1.417h-1.5Zm.083-.083c.046 0 .083.037.083.083h-1.5c0 .782.635 1.417 1.417 1.417v-1.5Zm.083.083a.083.083 0 0 1-.083.083v-1.5c-.782 0-1.417.635-1.417 1.417h1.5Zm-.083.083a.083.083 0 0 1-.083-.083h1.5c0-.782-.635-1.417-1.417-1.417v1.5ZM9.97 5.47l-4 4 1.06 1.06 4-4-1.06-1.06Z" fill="#141718"/>
</svg>
