<svg xmlns="http://www.w3.org/2000/svg" width="48" height="48" viewBox="0 0 48 48" fill="none">
  <path d="M28 38V14m0 24h4m-4 0H18m10-24a8 8 0 0 0-8-8h-8a8 8 0 0 0-8 8v16a8.003 8.003 0 0 0 6.008 7.75M28 14h6.418a4 4 0 0 1 2.736 1.082l5.582 5.233A4 4 0 0 1 44 23.233V34a4 4 0 0 1-4 4m0 0a4 4 0 0 1-8 0m8 0a4 4 0 0 0-8 0m-14 0a4 4 0 1 1-7.992-.25M18 38a4 4 0 0 0-7.992-.25" stroke="#141718" stroke-width="2.5"/>
  <path d="M20 16h-4m4 8h-8" stroke="#141718" stroke-width="2.5" stroke-linecap="round" stroke-linejoin="round"/>
</svg>
